<svg xmlns="http://www.w3.org/2000/svg" width="24" height="64" viewBox="0 0 24 64">
  <g id="icon-export" transform="translate(-270 -208)">
    <g id="Group_1" data-name="Group 1">
      <path id="icon-export-2" data-name="icon-export" d="M26,23h2v5H12V12H28v5H26V14H14V26H26Zm2.9-7.3L32.2,19H20v2H32.2l-3.3,3.3,1.4,1.4L36,20l-5.7-5.7Z" transform="translate(258 196)"/>
    </g>
    <g id="Group_2" data-name="Group 2" transform="translate(0 48)">
      <path id="icon-export-3" data-name="icon-export" d="M26,23h2v5H12V12H28v5H26V14H14V26H26Zm2.9-7.3L32.2,19H20v2H32.2l-3.3,3.3,1.4,1.4L36,20l-5.7-5.7Z" transform="translate(258 196)" fill="#4fc3f7"/>
    </g>
  </g>
</svg>
