<svg xmlns="http://www.w3.org/2000/svg" width="24" height="120" viewBox="0 0 24 120"><title>tiny-icon--rename</title><path d="M18.7,18H9.5a5.8,5.8,0,0,0,1.2-1l7.9-7.8a2.9,2.9,0,0,0,.8-2.1,3.1,3.1,0,0,0-1.1-2,3,3,0,0,0-1.5-.5,2.8,2.8,0,0,0-2,.8L7,13.3a10.7,10.7,0,0,0-2.3,4.4,1.1,1.1,0,0,0,.4,1.2,1.1,1.1,0,0,0,.9.4H18.7a.6.6,0,0,0,.6-.6A.7.7,0,0,0,18.7,18ZM7.9,14.2l7.8-7.8A1.5,1.5,0,0,1,16.8,6a1,1,0,0,1,.7.2,1.3,1.3,0,0,1,.2,2L9.8,16.1A10.4,10.4,0,0,1,6,18,10.4,10.4,0,0,1,7.9,14.2Z"/><path d="M18.7,42H9.5a5.8,5.8,0,0,0,1.2-1l7.9-7.8a2.9,2.9,0,0,0,.8-2.1,3.1,3.1,0,0,0-1.1-2,3,3,0,0,0-1.5-.5,2.8,2.8,0,0,0-2,.8L7,37.3a10.7,10.7,0,0,0-2.3,4.4,1.1,1.1,0,0,0,.4,1.2,1.1,1.1,0,0,0,.9.4H18.7a.6.6,0,0,0,.6-.6A.7.7,0,0,0,18.7,42ZM7.9,38.2l7.8-7.8a1.5,1.5,0,0,1,1.1-.4,1,1,0,0,1,.7.2,1.3,1.3,0,0,1,.2,2L9.8,40.1A10.4,10.4,0,0,1,6,42,10.4,10.4,0,0,1,7.9,38.2Z" style="fill:#302b2c"/><path d="M4.7,42.3A11.3,11.3,0,0,1,7,37.9l7.8-7.8a2.8,2.8,0,0,1,2-.8,3,3,0,0,1,1.5.5,2.7,2.7,0,0,1,1.1,1.8v-.5a3.1,3.1,0,0,0-1.1-2,3,3,0,0,0-1.5-.5,2.8,2.8,0,0,0-2,.8L7,37.3a10.7,10.7,0,0,0-2.3,4.4v.6Z" style="fill:#231f20"/><path d="M9.8,40.8l7.9-7.9a1.6,1.6,0,0,0,.3-1.3c0,.2-.2.4-.3.6L9.8,40.1a9.3,9.3,0,0,1-3.6,1.8l-.2.8A10.4,10.4,0,0,0,9.8,40.8Z" style="fill:#231f20"/><path d="M18.7,42H10.4l-.9.7h9.2a.5.5,0,0,1,.5.3.4.4,0,0,0,.1-.3A.7.7,0,0,0,18.7,42Z" style="fill:#231f20"/><path d="M20.1,55a3.2,3.2,0,0,0-1.4-2.4,3.4,3.4,0,0,0-1.9-.7A3.6,3.6,0,0,0,14.3,53L6.5,60.8a11.8,11.8,0,0,0-2.4,4.7,1.9,1.9,0,0,0,.5,1.9A2,2,0,0,0,6,68H18.7A1.3,1.3,0,0,0,20,66.7a1.3,1.3,0,0,0-1.3-1.4H11.4l7.7-7.7A3.5,3.5,0,0,0,20.1,55Zm-2.9.7L9.3,63.6a6.1,6.1,0,0,1-2.2,1.3,5.4,5.4,0,0,1,1.3-2.2l7.8-7.9.6-.2h.3a.5.5,0,0,1,.3.5A.8.8,0,0,1,17.2,55.7Z" style="fill:#42c7ff;opacity:0.2"/><path d="M18.7,66H9.5a5.8,5.8,0,0,0,1.2-1l7.9-7.9a2.4,2.4,0,0,0,.8-2.1,3.1,3.1,0,0,0-1.1-1.9,3,3,0,0,0-1.5-.5,2.8,2.8,0,0,0-2,.8L7,61.3c-1.5,1.4-2.2,4.1-2.3,4.3a1.2,1.2,0,0,0,.4,1.3,1.1,1.1,0,0,0,.9.4H18.7a.6.6,0,0,0,.6-.6A.7.7,0,0,0,18.7,66ZM7.9,62.2l7.8-7.8a1.6,1.6,0,0,1,1.1-.5,1.1,1.1,0,0,1,.7.3,1.3,1.3,0,0,1,.2,2L9.8,64.1A10.4,10.4,0,0,1,6,66,10.4,10.4,0,0,1,7.9,62.2Z" style="fill:#42c7ff"/><path d="M4.7,66.3A11.3,11.3,0,0,1,7,61.9l7.8-7.8a2.8,2.8,0,0,1,2-.8,2.3,2.3,0,0,1,1.5.5,2.7,2.7,0,0,1,1.1,1.8V55a3.1,3.1,0,0,0-1.1-1.9,3,3,0,0,0-1.5-.5,2.8,2.8,0,0,0-2,.8L7,61.3c-1.5,1.4-2.2,4.1-2.3,4.3v.7Z" style="fill:#29abe2"/><path d="M9.8,64.8l7.9-7.9a1.6,1.6,0,0,0,.3-1.3.9.9,0,0,1-.3.6L9.8,64.1a9.3,9.3,0,0,1-3.6,1.8l-.2.8A10.4,10.4,0,0,0,9.8,64.8Z" style="fill:#29abe2"/><path d="M18.7,66H10.4l-.9.7h9.2a.5.5,0,0,1,.5.3.4.4,0,0,0,.1-.3A.7.7,0,0,0,18.7,66Z" style="fill:#29abe2"/><path d="M18.7,90H9.5a5.8,5.8,0,0,0,1.2-1l7.9-7.8a2.9,2.9,0,0,0,.8-2.1,3.1,3.1,0,0,0-1.1-2,3,3,0,0,0-1.5-.5,2.8,2.8,0,0,0-2,.8L7,85.3a10.7,10.7,0,0,0-2.3,4.4,1.1,1.1,0,0,0,.4,1.2,1.1,1.1,0,0,0,.9.4H18.7a.6.6,0,0,0,.6-.6A.7.7,0,0,0,18.7,90ZM7.9,86.2l7.8-7.8a1.5,1.5,0,0,1,1.1-.4,1,1,0,0,1,.7.2,1.3,1.3,0,0,1,.2,2L9.8,88.1A10.4,10.4,0,0,1,6,90,10.4,10.4,0,0,1,7.9,86.2Z" style="fill:#c4bec1"/><path d="M4.7,90.3A11.3,11.3,0,0,1,7,85.9l7.8-7.8a2.8,2.8,0,0,1,2-.8,3,3,0,0,1,1.5.5,2.7,2.7,0,0,1,1.1,1.8v-.5a3.1,3.1,0,0,0-1.1-2,3,3,0,0,0-1.5-.5,2.8,2.8,0,0,0-2,.8L7,85.3a10.7,10.7,0,0,0-2.3,4.4v.6Z" style="fill:#bab4b8"/><path d="M9.8,88.8l7.9-7.9a1.6,1.6,0,0,0,.3-1.3c0,.2-.2.4-.3.6L9.8,88.1a9.3,9.3,0,0,1-3.6,1.8l-.2.8A10.4,10.4,0,0,0,9.8,88.8Z" style="fill:#bab4b8"/><path d="M18.7,90H10.4l-.9.7h9.2a.5.5,0,0,1,.5.3.4.4,0,0,0,.1-.3A.7.7,0,0,0,18.7,90Z" style="fill:#bab4b8"/><path d="M18.7,114H9.5a5.8,5.8,0,0,0,1.2-1l7.9-7.8a2.9,2.9,0,0,0,.8-2.1,3.1,3.1,0,0,0-1.1-2,3,3,0,0,0-1.5-.5,2.8,2.8,0,0,0-2,.8L7,109.3a10.7,10.7,0,0,0-2.3,4.4,1.1,1.1,0,0,0,.4,1.2,1.1,1.1,0,0,0,.9.4H18.7a.6.6,0,0,0,.6-.6A.7.7,0,0,0,18.7,114ZM7.9,110.2l7.8-7.8a1.5,1.5,0,0,1,1.1-.4,1,1,0,0,1,.7.2,1.3,1.3,0,0,1,.2,2l-7.9,7.9A10.4,10.4,0,0,1,6,114,10.4,10.4,0,0,1,7.9,110.2Z" style="fill:#9c979a"/><path d="M4.7,114.3A11.3,11.3,0,0,1,7,109.9l7.8-7.8a2.8,2.8,0,0,1,2-.8,3,3,0,0,1,1.5.5,2.7,2.7,0,0,1,1.1,1.8v-.5a3.1,3.1,0,0,0-1.1-2,3,3,0,0,0-1.5-.5,2.8,2.8,0,0,0-2,.8L7,109.3a10.7,10.7,0,0,0-2.3,4.4v.6Z" style="fill:#807b7e"/><path d="M9.8,112.8l7.9-7.9a1.6,1.6,0,0,0,.3-1.3c0,.2-.2.4-.3.6l-7.9,7.9a9.3,9.3,0,0,1-3.6,1.8l-.2.8A10.4,10.4,0,0,0,9.8,112.8Z" style="fill:#807b7e"/><path d="M18.7,114H10.4l-.9.7h9.2a.5.5,0,0,1,.5.3.4.4,0,0,0,.1-.3A.7.7,0,0,0,18.7,114Z" style="fill:#807b7e"/></svg>