<svg xmlns="http://www.w3.org/2000/svg" width="24" height="120" viewBox="0 0 24 120"><title>tiny-icon--delete</title><path d="M18,7.3H16V6a1.3,1.3,0,0,0-1.3-1.3H9.3A1.3,1.3,0,0,0,8,6V7.3H6A1.3,1.3,0,0,0,4.7,8.7v2a.6.6,0,0,0,.6.6H6V18a1.3,1.3,0,0,0,1.3,1.3h9.4A1.3,1.3,0,0,0,18,18V11.3h.7a.6.6,0,0,0,.6-.6v-2A1.3,1.3,0,0,0,18,7.3ZM9.3,6h5.4V7.3H9.3Zm7.4,12H15.3V13.3a.6.6,0,0,0-.6-.6.7.7,0,0,0-.7.6V18H7.3V11.3h9.4ZM18,10H6V8.7H18Z"/><path d="M18,31.3H16V30a1.3,1.3,0,0,0-1.3-1.3H9.3A1.3,1.3,0,0,0,8,30v1.3H6a1.3,1.3,0,0,0-1.3,1.4v2a.6.6,0,0,0,.6.6H6V42a1.3,1.3,0,0,0,1.3,1.3h9.4A1.3,1.3,0,0,0,18,42V35.3h.7a.6.6,0,0,0,.6-.6v-2A1.3,1.3,0,0,0,18,31.3ZM9.3,30h5.4v1.3H9.3Zm7.4,12H15.3V37.3a.6.6,0,0,0-.6-.6.7.7,0,0,0-.7.6V42H7.3V35.3h9.4ZM18,34H6V32.7H18Z" style="fill:#302b2c"/><rect x="15.3" y="42" width="1.3" height="0.67" style="fill:#231f20"/><path d="M9.3,29.3h5.4A1.3,1.3,0,0,1,16,30.7V30a1.3,1.3,0,0,0-1.3-1.3H9.3A1.3,1.3,0,0,0,8,30v.7A1.3,1.3,0,0,1,9.3,29.3Z" style="fill:#231f20"/><path d="M14.7,37.3a.7.7,0,0,1,.6.7v-.7a.6.6,0,0,0-.6-.6.7.7,0,0,0-.7.6V38A.7.7,0,0,1,14.7,37.3Z" style="fill:#231f20"/><rect x="7.3" y="42" width="6.7" height="0.67" style="fill:#231f20"/><path d="M18,31.3H16V32h2a1.3,1.3,0,0,1,1.3,1.3v-.6A1.3,1.3,0,0,0,18,31.3Z" style="fill:#231f20"/><rect x="6" y="34" width="12" height="0.67" style="fill:#231f20"/><path d="M6,32H8v-.7H6a1.3,1.3,0,0,0-1.3,1.4v.6A1.3,1.3,0,0,1,6,32Z" style="fill:#231f20"/><rect x="9.3" y="31.3" width="5.3" height="0.67" style="fill:#231f20"/><path d="M18,54.7H16.7V54a2,2,0,0,0-2-2H9.3a2,2,0,0,0-2,2v.7H6a2,2,0,0,0-2,2v2A1.3,1.3,0,0,0,5.3,60v6a2,2,0,0,0,2,2h9.4a2,2,0,0,0,2-2V60A1.3,1.3,0,0,0,20,58.7v-2A2,2,0,0,0,18,54.7Zm-4.7,6.6v4H8V60h6.7A1.3,1.3,0,0,0,13.3,61.3Z" style="fill:#42c7ff;opacity:0.2"/><path d="M18,55.3H16V54a1.3,1.3,0,0,0-1.3-1.3H9.3A1.3,1.3,0,0,0,8,54v1.3H6a1.3,1.3,0,0,0-1.3,1.4v2a.6.6,0,0,0,.6.6H6V66a1.3,1.3,0,0,0,1.3,1.3h9.4A1.3,1.3,0,0,0,18,66V59.3h.7a.6.6,0,0,0,.6-.6v-2A1.3,1.3,0,0,0,18,55.3ZM9.3,54h5.4v1.3H9.3Zm7.4,12H15.3V61.3a.6.6,0,0,0-.6-.6.7.7,0,0,0-.7.6V66H7.3V59.3h9.4ZM18,58H6V56.7H18Z" style="fill:#42c7ff"/><rect x="15.3" y="66" width="1.3" height="0.67" style="fill:#29abe2"/><path d="M9.3,53.3h5.4A1.3,1.3,0,0,1,16,54.7V54a1.3,1.3,0,0,0-1.3-1.3H9.3A1.3,1.3,0,0,0,8,54v.7A1.3,1.3,0,0,1,9.3,53.3Z" style="fill:#29abe2"/><path d="M14.7,61.3a.7.7,0,0,1,.6.7v-.7a.6.6,0,0,0-.6-.6.7.7,0,0,0-.7.6V62A.7.7,0,0,1,14.7,61.3Z" style="fill:#29abe2"/><rect x="7.3" y="66" width="6.7" height="0.67" style="fill:#29abe2"/><path d="M18,55.3H16V56h2a1.3,1.3,0,0,1,1.3,1.3v-.6A1.3,1.3,0,0,0,18,55.3Z" style="fill:#29abe2"/><rect x="6" y="58" width="12" height="0.67" style="fill:#29abe2"/><path d="M6,56H8v-.7H6a1.3,1.3,0,0,0-1.3,1.4v.6A1.3,1.3,0,0,1,6,56Z" style="fill:#29abe2"/><rect x="9.3" y="55.3" width="5.3" height="0.67" style="fill:#29abe2"/><path d="M18,79.3H16V78a1.3,1.3,0,0,0-1.3-1.3H9.3A1.3,1.3,0,0,0,8,78v1.3H6a1.3,1.3,0,0,0-1.3,1.4v2a.6.6,0,0,0,.6.6H6V90a1.3,1.3,0,0,0,1.3,1.3h9.4A1.3,1.3,0,0,0,18,90V83.3h.7a.6.6,0,0,0,.6-.6v-2A1.3,1.3,0,0,0,18,79.3ZM9.3,78h5.4v1.3H9.3Zm7.4,12H15.3V85.3a.6.6,0,0,0-.6-.6.7.7,0,0,0-.7.6V90H7.3V83.3h9.4ZM18,82H6V80.7H18Z" style="fill:#c4bec1"/><rect x="15.3" y="90" width="1.3" height="0.67" style="fill:#bab4b8"/><path d="M9.3,77.3h5.4A1.3,1.3,0,0,1,16,78.7V78a1.3,1.3,0,0,0-1.3-1.3H9.3A1.3,1.3,0,0,0,8,78v.7A1.3,1.3,0,0,1,9.3,77.3Z" style="fill:#bab4b8"/><path d="M14.7,85.3a.7.7,0,0,1,.6.7v-.7a.6.6,0,0,0-.6-.6.7.7,0,0,0-.7.6V86A.7.7,0,0,1,14.7,85.3Z" style="fill:#bab4b8"/><rect x="7.3" y="90" width="6.7" height="0.67" style="fill:#bab4b8"/><path d="M18,79.3H16V80h2a1.3,1.3,0,0,1,1.3,1.3v-.6A1.3,1.3,0,0,0,18,79.3Z" style="fill:#bab4b8"/><rect x="6" y="82" width="12" height="0.67" style="fill:#bab4b8"/><path d="M6,80H8v-.7H6a1.3,1.3,0,0,0-1.3,1.4v.6A1.3,1.3,0,0,1,6,80Z" style="fill:#bab4b8"/><rect x="9.3" y="79.3" width="5.3" height="0.67" style="fill:#bab4b8"/><path d="M18,103.3H16V102a1.3,1.3,0,0,0-1.3-1.3H9.3A1.3,1.3,0,0,0,8,102v1.3H6a1.3,1.3,0,0,0-1.3,1.4v2a.6.6,0,0,0,.6.6H6V114a1.3,1.3,0,0,0,1.3,1.3h9.4A1.3,1.3,0,0,0,18,114v-6.7h.7a.6.6,0,0,0,.6-.6v-2A1.3,1.3,0,0,0,18,103.3ZM9.3,102h5.4v1.3H9.3Zm7.4,12H15.3v-4.7a.6.6,0,0,0-.6-.6.7.7,0,0,0-.7.6V114H7.3v-6.7h9.4Zm1.3-8H6v-1.3H18Z" style="fill:#9c979a"/><rect x="15.3" y="114" width="1.3" height="0.67" style="fill:#807b7e"/><path d="M9.3,101.3h5.4a1.3,1.3,0,0,1,1.3,1.4V102a1.3,1.3,0,0,0-1.3-1.3H9.3A1.3,1.3,0,0,0,8,102v.7A1.3,1.3,0,0,1,9.3,101.3Z" style="fill:#807b7e"/><path d="M14.7,109.3a.7.7,0,0,1,.6.7v-.7a.6.6,0,0,0-.6-.6.7.7,0,0,0-.7.6v.7A.7.7,0,0,1,14.7,109.3Z" style="fill:#807b7e"/><rect x="7.3" y="114" width="6.7" height="0.67" style="fill:#807b7e"/><path d="M18,103.3H16v.7h2a1.3,1.3,0,0,1,1.3,1.3v-.6A1.3,1.3,0,0,0,18,103.3Z" style="fill:#807b7e"/><rect x="6" y="106" width="12" height="0.67" style="fill:#807b7e"/><path d="M6,104H8v-.7H6a1.3,1.3,0,0,0-1.3,1.4v.6A1.3,1.3,0,0,1,6,104Z" style="fill:#807b7e"/><rect x="9.3" y="103.3" width="5.3" height="0.67" style="fill:#807b7e"/></svg>