<svg xmlns="http://www.w3.org/2000/svg" viewBox="0 0 400 64" width="400" height="64"><defs><style>.a{fill:#231f20;}.b{fill:#ed1e79;}.c{fill:#29abe2;}</style></defs><title>varia-logo</title><rect class="a" width="400" height="64"/><path class="b" d="M127,27a9,9,0,0,0-9-9H105V46h2V36h11c.188,0,.373-.017.558-.028L125.58,46h2.442l-7.3-10.422A9,9,0,0,0,127,27Zm-20-7h11a7,7,0,0,1,0,14H107Z"/><rect class="b" x="140" y="18" width="2" height="28"/><polygon class="c" points="217 18.111 216.953 18 205 43.634 193.047 18 193 18.111 193 18 191 18 191 46 193 46 193 22.632 203.897 46 206.103 46 217 22.632 217 46 219 46 219 18 217 18 217 18.111"/><polygon class="c" points="232 18 232 46 252 46 252 44 234 44 234 33 248 33 248 31 234 31 234 20 252 20 252 18 232 18"/><polygon class="c" points="261 18 261 20 271 20 271 46 273 46 273 20 283 20 283 18 261 18"/><polygon class="b" points="51 43.634 39.047 18 36.84 18 49.897 46 52.103 46 65.16 18 62.953 18 51 43.634"/><path class="b" d="M80.9,18,67.84,46h2.207L73,39.667V40H91.155l2.8,6H96.16L83.1,18Zm-7.12,20L82,20.366,90.223,38Z"/><path class="b" d="M165.9,18,152.84,46h2.207L158,39.667V40h18.155l2.8,6h2.207L168.1,18Zm-7.12,20L167,20.366,175.223,38Z"/><path class="c" d="M314,27a9,9,0,0,0-9-9H292V46h2V36h11c.188,0,.373-.017.558-.028L312.58,46h2.442l-7.3-10.422A9,9,0,0,0,314,27Zm-20-7h11a7,7,0,0,1,0,14H294Z"/><rect class="c" x="327" y="18" width="2" height="28"/><polygon class="c" points="363.024 18 360.582 18 352 30.257 343.418 18 340.976 18 350.779 32 340.976 46 343.418 46 352 33.743 360.582 46 363.024 46 353.221 32 363.024 18"/></svg>
