<svg xmlns="http://www.w3.org/2000/svg" width="960" height="192" viewBox="0 0 960 192"><defs><style>.a{fill:#29abe2;}.b,.c{fill:none;stroke:#29abe2;stroke-width:2px;}.b{stroke-miterlimit:10;}.c{stroke-linejoin:round;}</style></defs><title>buttons</title><rect class="a" x="13" y="23" width="22" height="2"/><rect class="a" x="13" y="14" width="22" height="2"/><rect class="a" x="13" y="32" width="22" height="2"/><rect class="a" x="61" y="23" width="23" height="2"/><path class="a" d="M70.76,32,62,24.1v-.2L70.76,16,70,14l-9.25,8.34A2.19,2.19,0,0,0,60,24h0a2.19,2.19,0,0,0,.75,1.66L70,34Z"/><path class="a" d="M159,22V35h18V22Zm16,11H161V24h14Z"/><path class="a" d="M163,23V19a5,5,0,0,1,10,0v4h2V19a7,7,0,0,0-14,0v4Z"/><path class="a" d="M207,22V35h18V22Zm16,11H209V24h14Z"/><path class="a" d="M212.29,16.7l.34-.94a5,5,0,1,1,9.4,3.42l-1.37,3.76,1.88.68,1.37-3.76a7,7,0,1,0-13.16-4.78l-.34.94Z"/><line class="b" x1="252" y1="24" x2="276" y2="24"/><path class="a" d="M258.81,21a6,6,0,0,1,10.38,0h2.22a8,8,0,0,0-14.82,0Z"/><path class="a" d="M269.19,27a6,6,0,0,1-10.38,0h-2.22a8,8,0,0,0,14.82,0Z"/><path class="a" d="M312,20a4,4,0,1,0,4,4A4,4,0,0,0,312,20Zm0,10a6,6,0,1,1,6-6A6,6,0,0,1,312,30Z"/><line class="b" x1="308.34" y1="20.34" x2="307" y2="19"/><polyline class="b" points="301 19 307 19 307 15 309 11"/><polyline class="b" points="312 20 312 15 316 15 316 12"/><polyline class="b" points="316 15 319 15 319 18 321 20"/><line class="b" x1="304" y1="19" x2="304" y2="23"/><line class="b" x1="309" y1="27" x2="303.5" y2="32.5"/><polyline class="b" points="301 24 301 27 305 31"/><polyline class="b" points="312 29 312 32 315.5 35.5"/><polyline class="b" points="317 24 321 24 321 33"/><line class="b" x1="321" y1="24" x2="323" y2="22"/><rect class="a" x="349" y="23" width="22" height="2"/><rect class="a" x="349" y="23" width="22" height="2" transform="translate(384 -336) rotate(90)"/><rect class="a" x="397" y="23" width="22" height="2"/><rect class="a" x="448" y="23" width="19" height="2" transform="translate(915 48) rotate(-180)"/><path class="a" d="M457.24,16,466,23.9v.2L457.24,32l.76,2,9.25-8.34A2.19,2.19,0,0,0,468,24h0a2.19,2.19,0,0,0-.75-1.66L458,14Z"/><polygon class="a" points="452 27 452 30 445 30 445 18 452 18 452 21 454 21 454 16 443 16 443 32 454 32 454 27 452 27"/><path class="a" d="M516.37,20h-1.06A12,12,0,0,0,508,12.69V11.63a13,13,0,0,0-8,0v1.06A12,12,0,0,0,492.69,20h-1.06a13,13,0,0,0,0,8h1.06A12,12,0,0,0,500,35.31v1.06a13,13,0,0,0,8,0V35.31A12,12,0,0,0,515.31,28h1.06a13,13,0,0,0,0-8Zm-3.21,0h-3.42A6.85,6.85,0,0,0,508,18.26V14.84A9.93,9.93,0,0,1,513.16,20ZM504,29a5,5,0,1,1,5-5A5,5,0,0,1,504,29Zm2-15.79V17.3a6.82,6.82,0,0,0-4,0V13.21a9.63,9.63,0,0,1,4,0Zm-6,1.63v3.42A6.85,6.85,0,0,0,498.26,20h-3.42A9.93,9.93,0,0,1,500,14.84ZM493.21,22h4.09a6.82,6.82,0,0,0,0,4h-4.09a9.63,9.63,0,0,1,0-4Zm1.63,6h3.42A6.85,6.85,0,0,0,500,29.74v3.42A9.93,9.93,0,0,1,494.84,28ZM502,34.79V30.7a6.82,6.82,0,0,0,4,0v4.09a9.63,9.63,0,0,1-4,0Zm6-1.63V29.74A6.85,6.85,0,0,0,509.74,28h3.42A9.93,9.93,0,0,1,508,33.16ZM514.79,26H510.7a6.82,6.82,0,0,0,0-4h4.09a9.63,9.63,0,0,1,0,4Z"/><rect class="a" x="591.5" y="19.5" width="17" height="2" transform="translate(579.5 620.5) rotate(-90)"/><path class="a" d="M606,22.24,600.1,29h-.2L594,22.24,592,23l6.34,7.25A2.19,2.19,0,0,0,600,31h0a2.19,2.19,0,0,0,1.66-.75L608,23Z"/><rect class="a" x="589" y="33" width="22" height="2"/><rect class="a" x="543.5" y="21.5" width="17" height="2" transform="translate(574.5 -529.5) rotate(90)"/><path class="a" d="M546,20.76,551.9,14h.2l5.9,6.76,2-.76-6.34-7.25A2.19,2.19,0,0,0,552,12h0a2.19,2.19,0,0,0-1.66.75L544,20Z"/><rect class="a" x="541" y="33" width="22" height="2" transform="translate(1104 68) rotate(-180)"/><path class="c" d="M109.77,24.88c2.88,2.22,5.75,4.44,7.52,8.11,3.79-10.85,12.8-18.79,12.8-18.79"/><polygon class="a" points="657 17 657 15 637 15 635 15 635 17 635 31 635 33 637 33 657 33 657 31 637 31 637 17 657 17"/><line class="b" x1="644" y1="19" x2="644" y2="29"/><line class="b" x1="639.67" y1="21.5" x2="648.33" y2="26.5"/><line class="b" x1="639.67" y1="26.5" x2="648.33" y2="21.5"/><line class="b" x1="656" y1="19" x2="656" y2="29"/><line class="b" x1="651.67" y1="21.5" x2="660.33" y2="26.5"/><line class="b" x1="651.67" y1="26.5" x2="660.33" y2="21.5"/></svg>