<svg xmlns="http://www.w3.org/2000/svg" width="48" height="240" viewBox="0 0 48 240"><defs><style>.a{fill:#42c7ff;opacity:0.2;}.b,.c,.d,.e,.f{fill:none;stroke-linecap:round;stroke-linejoin:round;stroke-width:2px;}.b{stroke:#000;}.c{stroke:#302b2c;}.d{stroke:#c4bec1;}.e{stroke:#9c979a;}.f{stroke:#42c7ff;}.g{fill:#231f20;}.h{fill:#bab4b8;}.i{fill:#807b7e;}.j{fill:#29abe2;}</style></defs><title>panel-tab--dashboards</title><path class="a" d="M40,100H32a4,4,0,0,0-4,4,4,4,0,0,0-4-4H8a4,4,0,0,0-4,4v8a4,4,0,0,0,4,4,4,4,0,0,0-4,4v16a4,4,0,0,0,4,4H24a4,4,0,0,0,4-4,4,4,0,0,0,4,4h8a4,4,0,0,0,4-4v-4a4,4,0,0,0-4-4,4,4,0,0,0,4-4v-4a4,4,0,0,0-4-4,4,4,0,0,0,4-4v-8A4,4,0,0,0,40,100ZM8,104H24v8H8Zm0,32V120H24v16Zm32,0H32v-4h8Zm0-12H32v-4h8Zm-8-12v-8h8v8Z"/><rect class="b" x="6" y="6" width="20" height="12" rx="2"/><rect class="b" x="6" y="22" width="20" height="20" rx="2"/><rect class="b" x="30" y="6" width="12" height="12" rx="2"/><rect class="b" x="30" y="22" width="12" height="8" rx="2"/><rect class="b" x="30" y="34" width="12" height="8" rx="2"/><rect class="c" x="6" y="54" width="20" height="12" rx="2"/><rect class="c" x="6" y="70" width="20" height="20" rx="2"/><rect class="c" x="30" y="54" width="12" height="12" rx="2"/><rect class="c" x="30" y="70" width="12" height="8" rx="2"/><rect class="c" x="30" y="82" width="12" height="8" rx="2"/><rect class="d" x="6" y="150" width="20" height="12" rx="2"/><rect class="d" x="6" y="166" width="20" height="20" rx="2"/><rect class="d" x="30" y="150" width="12" height="12" rx="2"/><rect class="d" x="30" y="166" width="12" height="8" rx="2"/><rect class="d" x="30" y="178" width="12" height="8" rx="2"/><rect class="e" x="6" y="198" width="20" height="12" rx="2"/><rect class="e" x="6" y="214" width="20" height="20" rx="2"/><rect class="e" x="30" y="198" width="12" height="12" rx="2"/><rect class="e" x="30" y="214" width="12" height="8" rx="2"/><rect class="e" x="30" y="226" width="12" height="8" rx="2"/><rect class="f" x="6" y="102" width="20" height="12" rx="2"/><rect class="f" x="6" y="118" width="20" height="20" rx="2"/><rect class="f" x="30" y="102" width="12" height="12" rx="2"/><rect class="f" x="30" y="118" width="12" height="8" rx="2"/><rect class="f" x="30" y="130" width="12" height="8" rx="2"/><path class="g" d="M8,66H24a1,1,0,0,0,1-1V64a1,1,0,0,1-1,1H8a1,1,0,0,1-1-1v1A1,1,0,0,0,8,66Z"/><path class="g" d="M24,53H8a3,3,0,0,0-3,3v1a3,3,0,0,1,3-3H24a3,3,0,0,1,3,3V56A3,3,0,0,0,24,53Z"/><path class="g" d="M8,90H24a1,1,0,0,0,1-1V88a1,1,0,0,1-1,1H8a1,1,0,0,1-1-1v1A1,1,0,0,0,8,90Z"/><path class="g" d="M24,69H8a3,3,0,0,0-3,3v1a3,3,0,0,1,3-3H24a3,3,0,0,1,3,3V72A3,3,0,0,0,24,69Z"/><path class="g" d="M40,53H32a3,3,0,0,0-3,3v1a3,3,0,0,1,3-3h8a3,3,0,0,1,3,3V56A3,3,0,0,0,40,53Z"/><path class="g" d="M32,66h8a1,1,0,0,0,1-1V64a1,1,0,0,1-1,1H32a1,1,0,0,1-1-1v1A1,1,0,0,0,32,66Z"/><path class="g" d="M32,78h8a1,1,0,0,0,1-1V76a1,1,0,0,1-1,1H32a1,1,0,0,1-1-1v1A1,1,0,0,0,32,78Z"/><path class="g" d="M40,69H32a3,3,0,0,0-3,3v1a3,3,0,0,1,3-3h8a3,3,0,0,1,3,3V72A3,3,0,0,0,40,69Z"/><path class="g" d="M40,81H32a3,3,0,0,0-3,3v1a3,3,0,0,1,3-3h8a3,3,0,0,1,3,3V84A3,3,0,0,0,40,81Z"/><path class="g" d="M32,90h8a1,1,0,0,0,1-1V88a1,1,0,0,1-1,1H32a1,1,0,0,1-1-1v1A1,1,0,0,0,32,90Z"/><path class="h" d="M8,162H24a1,1,0,0,0,1-1v-1a1,1,0,0,1-1,1H8a1,1,0,0,1-1-1v1A1,1,0,0,0,8,162Z"/><path class="h" d="M24,149H8a3,3,0,0,0-3,3v1a3,3,0,0,1,3-3H24a3,3,0,0,1,3,3v-1A3,3,0,0,0,24,149Z"/><path class="h" d="M8,186H24a1,1,0,0,0,1-1v-1a1,1,0,0,1-1,1H8a1,1,0,0,1-1-1v1A1,1,0,0,0,8,186Z"/><path class="h" d="M24,165H8a3,3,0,0,0-3,3v1a3,3,0,0,1,3-3H24a3,3,0,0,1,3,3v-1A3,3,0,0,0,24,165Z"/><path class="h" d="M40,149H32a3,3,0,0,0-3,3v1a3,3,0,0,1,3-3h8a3,3,0,0,1,3,3v-1A3,3,0,0,0,40,149Z"/><path class="h" d="M32,162h8a1,1,0,0,0,1-1v-1a1,1,0,0,1-1,1H32a1,1,0,0,1-1-1v1A1,1,0,0,0,32,162Z"/><path class="h" d="M32,174h8a1,1,0,0,0,1-1v-1a1,1,0,0,1-1,1H32a1,1,0,0,1-1-1v1A1,1,0,0,0,32,174Z"/><path class="h" d="M40,165H32a3,3,0,0,0-3,3v1a3,3,0,0,1,3-3h8a3,3,0,0,1,3,3v-1A3,3,0,0,0,40,165Z"/><path class="h" d="M40,177H32a3,3,0,0,0-3,3v1a3,3,0,0,1,3-3h8a3,3,0,0,1,3,3v-1A3,3,0,0,0,40,177Z"/><path class="h" d="M32,186h8a1,1,0,0,0,1-1v-1a1,1,0,0,1-1,1H32a1,1,0,0,1-1-1v1A1,1,0,0,0,32,186Z"/><path class="i" d="M8,210H24a1,1,0,0,0,1-1v-1a1,1,0,0,1-1,1H8a1,1,0,0,1-1-1v1A1,1,0,0,0,8,210Z"/><path class="i" d="M24,197H8a3,3,0,0,0-3,3v1a3,3,0,0,1,3-3H24a3,3,0,0,1,3,3v-1A3,3,0,0,0,24,197Z"/><path class="i" d="M8,234H24a1,1,0,0,0,1-1v-1a1,1,0,0,1-1,1H8a1,1,0,0,1-1-1v1A1,1,0,0,0,8,234Z"/><path class="i" d="M24,213H8a3,3,0,0,0-3,3v1a3,3,0,0,1,3-3H24a3,3,0,0,1,3,3v-1A3,3,0,0,0,24,213Z"/><path class="i" d="M40,197H32a3,3,0,0,0-3,3v1a3,3,0,0,1,3-3h8a3,3,0,0,1,3,3v-1A3,3,0,0,0,40,197Z"/><path class="i" d="M32,210h8a1,1,0,0,0,1-1v-1a1,1,0,0,1-1,1H32a1,1,0,0,1-1-1v1A1,1,0,0,0,32,210Z"/><path class="i" d="M32,222h8a1,1,0,0,0,1-1v-1a1,1,0,0,1-1,1H32a1,1,0,0,1-1-1v1A1,1,0,0,0,32,222Z"/><path class="i" d="M40,213H32a3,3,0,0,0-3,3v1a3,3,0,0,1,3-3h8a3,3,0,0,1,3,3v-1A3,3,0,0,0,40,213Z"/><path class="i" d="M40,225H32a3,3,0,0,0-3,3v1a3,3,0,0,1,3-3h8a3,3,0,0,1,3,3v-1A3,3,0,0,0,40,225Z"/><path class="i" d="M32,234h8a1,1,0,0,0,1-1v-1a1,1,0,0,1-1,1H32a1,1,0,0,1-1-1v1A1,1,0,0,0,32,234Z"/><path class="j" d="M8,114H24a1,1,0,0,0,1-1v-1a1,1,0,0,1-1,1H8a1,1,0,0,1-1-1v1A1,1,0,0,0,8,114Z"/><path class="j" d="M24,101H8a3,3,0,0,0-3,3v1a3,3,0,0,1,3-3H24a3,3,0,0,1,3,3v-1A3,3,0,0,0,24,101Z"/><path class="j" d="M8,138H24a1,1,0,0,0,1-1v-1a1,1,0,0,1-1,1H8a1,1,0,0,1-1-1v1A1,1,0,0,0,8,138Z"/><path class="j" d="M24,117H8a3,3,0,0,0-3,3v1a3,3,0,0,1,3-3H24a3,3,0,0,1,3,3v-1A3,3,0,0,0,24,117Z"/><path class="j" d="M40,101H32a3,3,0,0,0-3,3v1a3,3,0,0,1,3-3h8a3,3,0,0,1,3,3v-1A3,3,0,0,0,40,101Z"/><path class="j" d="M32,114h8a1,1,0,0,0,1-1v-1a1,1,0,0,1-1,1H32a1,1,0,0,1-1-1v1A1,1,0,0,0,32,114Z"/><path class="j" d="M32,126h8a1,1,0,0,0,1-1v-1a1,1,0,0,1-1,1H32a1,1,0,0,1-1-1v1A1,1,0,0,0,32,126Z"/><path class="j" d="M40,117H32a3,3,0,0,0-3,3v1a3,3,0,0,1,3-3h8a3,3,0,0,1,3,3v-1A3,3,0,0,0,40,117Z"/><path class="j" d="M40,129H32a3,3,0,0,0-3,3v1a3,3,0,0,1,3-3h8a3,3,0,0,1,3,3v-1A3,3,0,0,0,40,129Z"/><path class="j" d="M32,138h8a1,1,0,0,0,1-1v-1a1,1,0,0,1-1,1H32a1,1,0,0,1-1-1v1A1,1,0,0,0,32,138Z"/></svg>