<svg xmlns="http://www.w3.org/2000/svg" width="48" height="144" viewBox="0 0 48 144">
  <title>export-ppt</title>
  <polygon points="18 22 18 17 6 17 6 33 18 33 18 28 16 28 16 31 8 31 8 19 16 19 16 22 18 22" style="fill: #29abe2"/>
  <g>
    <polygon points="18.52 22.34 20.17 24 12 24 12 26 20.17 26 18.52 27.66 19.93 29.07 24 25 19.93 20.93 18.52 22.34" style="fill: #29abe2"/>
    <path d="M25,19V31h2V27h1a2,2,0,0,0,2-2V21a2,2,0,0,0-2-2Zm3,6H27V21h1Z" style="fill: #29abe2"/>
    <path d="M31,19V31h2V27h1a2,2,0,0,0,2-2V21a2,2,0,0,0-2-2Zm3,6H33V21h1Z" style="fill: #29abe2"/>
    <polygon points="36 19 37 21 38 21 38 31 40 31 40 21 42 21 42 19 36 19" style="fill: #29abe2"/>
  </g>
  <polygon points="18 70 18 65 6 65 6 81 18 81 18 76 16 76 16 79 8 79 8 67 16 67 16 70 18 70" style="fill: #ddd"/>
  <g>
    <polygon points="18.52 70.34 20.17 72 12 72 12 74 20.17 74 18.52 75.66 19.93 77.07 24 73 19.93 68.93 18.52 70.34" style="fill: #ddd"/>
    <path d="M25,67V79h2V75h1a2,2,0,0,0,2-2V69a2,2,0,0,0-2-2Zm3,6H27V69h1Z" style="fill: #ddd"/>
    <path d="M31,67V79h2V75h1a2,2,0,0,0,2-2V69a2,2,0,0,0-2-2Zm3,6H33V69h1Z" style="fill: #ddd"/>
    <polygon points="36 67 37 69 38 69 38 79 40 79 40 69 42 69 42 67 36 67" style="fill: #ddd"/>
  </g>
  <polygon points="18 118 18 113 6 113 6 129 18 129 18 124 16 124 16 127 8 127 8 115 16 115 16 118 18 118" style="fill: #fff"/>
  <g>
    <polygon points="18.52 118.34 20.17 120 12 120 12 122 20.17 122 18.52 123.66 19.93 125.07 24 121 19.93 116.93 18.52 118.34" style="fill: #fff"/>
    <path d="M25,115v12h2v-4h1a2,2,0,0,0,2-2v-4a2,2,0,0,0-2-2Zm3,6H27v-4h1Z" style="fill: #fff"/>
    <path d="M31,115v12h2v-4h1a2,2,0,0,0,2-2v-4a2,2,0,0,0-2-2Zm3,6H33v-4h1Z" style="fill: #fff"/>
    <polygon points="36 115 37 117 38 117 38 127 40 127 40 117 42 117 42 115 36 115" style="fill: #fff"/>
  </g>
</svg>
