<svg xmlns="http://www.w3.org/2000/svg" width="48" height="96" viewBox="0 0 48 96"><defs><style>.a,.b,.c{fill:none;stroke-miterlimit:10;stroke-width:2px;}.a{stroke:#c4bec1;}.b{stroke:#42c7ff;}.c{stroke:#29abe2;}</style></defs><title>sprites</title><polyline class="a" points="13 9.03 16.97 13 13 16.97"/><polyline class="b" points="13 33.03 16.97 37 13 40.97"/><polyline class="a" points="13 57.03 16.97 61 13 64.97"/><polyline class="c" points="13 81.03 16.97 85 13 88.97"/><polyline class="a" points="30.03 8 33 5.03 35.97 8"/><polyline class="a" points="35.97 12 33 14.97 30.03 12"/><polyline class="b" points="30.03 32 33 29.03 35.97 32"/><polyline class="b" points="35.97 36 33 38.97 30.03 36"/><polyline class="a" points="30.03 56 33 53.03 35.97 56"/><polyline class="a" points="35.97 60 33 62.97 30.03 60"/><polyline class="c" points="30.03 80 33 77.03 35.97 80"/><polyline class="c" points="35.97 84 33 86.97 30.03 84"/></svg>