<svg xmlns="http://www.w3.org/2000/svg" width="38" height="97" viewBox="0 0 38 97">
  <g id="icon-arguments" transform="translate(-5 -11)">
    <g id="Group_1" data-name="Group 1">
      <path id="Path_1" data-name="Path 1" d="M25,25H23v4h2V28h9V26H25Z" fill="#4fc3f7"/>
      <path id="Path_2" data-name="Path 2" d="M21,18H19v4h2V21H34V19H21Z" fill="#4fc3f7"/>
      <rect id="Rectangle_1" data-name="Rectangle 1" width="3" height="2" transform="translate(14 19)" fill="#4fc3f7"/>
      <rect id="Rectangle_2" data-name="Rectangle 2" width="11" height="2" transform="translate(14 12)" fill="#4fc3f7"/>
      <path id="Path_3" data-name="Path 3" d="M29,12V11H27v4h2V14h5V12Z" fill="#4fc3f7"/>
      <rect id="Rectangle_3" data-name="Rectangle 3" width="7" height="2" transform="translate(14 26)" fill="#4fc3f7"/>
    </g>
    <g id="Group_2" data-name="Group 2" transform="translate(0 72)">
      <rect id="Rectangle_4" data-name="Rectangle 4" width="38" height="32" transform="translate(5 4)" fill="#4fc3f7"/>
      <path id="Path_1-2" data-name="Path 1" d="M25,25H23v4h2V28h9V26H25Z" fill="#fff"/>
      <path id="Path_2-2" data-name="Path 2" d="M21,18H19v4h2V21H34V19H21Z" fill="#fff"/>
      <rect id="Rectangle_1-2" data-name="Rectangle 1" width="3" height="2" transform="translate(14 19)" fill="#fff"/>
      <rect id="Rectangle_2-2" data-name="Rectangle 2" width="11" height="2" transform="translate(14 12)" fill="#fff"/>
      <path id="Path_3-2" data-name="Path 3" d="M29,12V11H27v4h2V14h5V12Z" fill="#fff"/>
      <rect id="Rectangle_3-2" data-name="Rectangle 3" width="7" height="2" transform="translate(14 26)" fill="#fff"/>
    </g>
  </g>
</svg>
