<svg xmlns="http://www.w3.org/2000/svg" width="48" height="240" viewBox="0 0 48 240"><defs><style>.a{fill:#42c7ff;opacity:0.2;}.b,.c,.d,.e,.f,.g,.h,.i,.j,.k{fill:none;stroke-linecap:round;stroke-width:2px;}.b,.c{stroke:#000;}.b,.d,.f,.h,.j{stroke-miterlimit:10;}.c,.e,.g,.i,.k{stroke-linejoin:round;}.d,.e{stroke:#302b2c;}.f,.g{stroke:#c4bec1;}.h,.i{stroke:#9c979a;}.j,.k{stroke:#42c7ff;}.l{fill:#231f20;}.m{fill:#bab4b8;}.n{fill:#807b7e;}.o{fill:#29abe2;}</style></defs><title>panel-tab--blocks</title><path class="a" d="M43,103H5a4,4,0,0,0-4,4v26a4,4,0,0,0,4,4H43a4,4,0,0,0,4-4V107A4,4,0,0,0,43,103ZM5,133V111H24a2,2,0,0,0,0-4H43v26Z"/><path class="a" d="M39.85,115.37l-3.52,2.48-3.37-.8a2,2,0,0,0-1.31.14l-7.27,3.42-3.26-3.07a2,2,0,0,0-2.22-.35l-3.62,1.7-3.57-.84a2,2,0,0,0-1.31.14l-4.25,2a2,2,0,1,0,1.7,3.62l3.62-1.7L15,123a2,2,0,0,0,1.31-.14l3-1.42,3.26,3.07A2,2,0,0,0,24,125a2,2,0,0,0,.85-.19l7.87-3.7,3.57.84a2,2,0,0,0,1.61-.32l4.25-3a2,2,0,0,0-2.3-3.26Z"/><rect class="b" x="3" y="9" width="42" height="30" rx="2"/><line class="b" x1="7" y1="13" x2="24" y2="13"/><polyline class="c" points="7 26 11.25 24 15.5 25 19.75 23 24 27 28.25 25 32.5 23 36.75 24 41 21"/><rect class="d" x="3" y="57" width="42" height="30" rx="2"/><line class="d" x1="7" y1="61" x2="24" y2="61"/><polyline class="e" points="7 74 11.25 72 15.5 73 19.75 71 24 75 28.25 73 32.5 71 36.75 72 41 69"/><rect class="f" x="3" y="153" width="42" height="30" rx="2"/><line class="f" x1="7" y1="157" x2="24" y2="157"/><polyline class="g" points="7 170 11.25 168 15.5 169 19.75 167 24 171 28.25 169 32.5 167 36.75 168 41 165"/><rect class="h" x="3" y="201" width="42" height="30" rx="2"/><line class="h" x1="7" y1="205" x2="24" y2="205"/><polyline class="i" points="7 218 11.25 216 15.5 217 19.75 215 24 219 28.25 217 32.5 215 36.75 216 41 213"/><rect class="j" x="3" y="105" width="42" height="30" rx="2"/><line class="j" x1="7" y1="109" x2="24" y2="109"/><polyline class="k" points="7 122 11.25 120 15.5 121 19.75 119 24 123 28.25 121 32.5 119 36.75 120 41 117"/><path class="l" d="M5,87H43a1,1,0,0,0,1-1V85a1,1,0,0,1-1,1H5a1,1,0,0,1-1-1v1A1,1,0,0,0,5,87Z"/><path class="l" d="M43,56H5a3,3,0,0,0-3,3v1a3,3,0,0,1,3-3H43a3,3,0,0,1,3,3V59A3,3,0,0,0,43,56Z"/><path class="l" d="M6.15,74.5a1,1,0,0,1,.42-.41l4.25-2a1,1,0,0,1,.66-.06l3.91.92,3.93-1.86a1,1,0,0,1,1.12.18l3.75,3.54,7.88-3.72a1,1,0,0,1,.66-.06l3.81.89,3.88-2.74a1,1,0,0,1,1.4.24s0,.06,0,.09a1,1,0,0,0-1.44-1.33l-3.88,2.74L32.73,70a1,1,0,0,0-.66.06l-7.88,3.72-3.75-3.54a1,1,0,0,0-1.12-.18L15.39,72,11.48,71a1,1,0,0,0-.66.06l-4.25,2a1,1,0,0,0-.47,1.34S6.14,74.48,6.15,74.5Z"/><path class="m" d="M5,183H43a1,1,0,0,0,1-1v-1a1,1,0,0,1-1,1H5a1,1,0,0,1-1-1v1A1,1,0,0,0,5,183Z"/><path class="m" d="M43,152H5a3,3,0,0,0-3,3v1a3,3,0,0,1,3-3H43a3,3,0,0,1,3,3v-1A3,3,0,0,0,43,152Z"/><path class="m" d="M6.15,170.5a1,1,0,0,1,.42-.41l4.25-2a1,1,0,0,1,.66-.06l3.91.92,3.93-1.86a1,1,0,0,1,1.12.18l3.75,3.54,7.88-3.72a1,1,0,0,1,.66-.06l3.81.89,3.88-2.74a1,1,0,0,1,1.4.24s0,.06,0,.09a1,1,0,0,0-1.44-1.33l-3.88,2.74L32.73,166a1,1,0,0,0-.66.06l-7.88,3.72-3.75-3.54a1,1,0,0,0-1.12-.18L15.39,168,11.48,167a1,1,0,0,0-.66.06l-4.25,2a1,1,0,0,0-.47,1.34S6.14,170.48,6.15,170.5Z"/><path class="n" d="M5,231H43a1,1,0,0,0,1-1v-1a1,1,0,0,1-1,1H5a1,1,0,0,1-1-1v1A1,1,0,0,0,5,231Z"/><path class="n" d="M43,200H5a3,3,0,0,0-3,3v1a3,3,0,0,1,3-3H43a3,3,0,0,1,3,3v-1A3,3,0,0,0,43,200Z"/><path class="n" d="M6.15,218.5a1,1,0,0,1,.42-.41l4.25-2a1,1,0,0,1,.66-.06l3.91.92,3.93-1.86a1,1,0,0,1,1.12.18l3.75,3.54,7.88-3.72a1,1,0,0,1,.66-.06l3.81.89,3.88-2.74a1,1,0,0,1,1.4.24s0,.06,0,.09a1,1,0,0,0-1.44-1.33l-3.88,2.74L32.73,214a1,1,0,0,0-.66.06l-7.88,3.72-3.75-3.54a1,1,0,0,0-1.12-.18L15.39,216,11.48,215a1,1,0,0,0-.66.06l-4.25,2a1,1,0,0,0-.47,1.34S6.14,218.48,6.15,218.5Z"/><path class="o" d="M5,135H43a1,1,0,0,0,1-1v-1a1,1,0,0,1-1,1H5a1,1,0,0,1-1-1v1A1,1,0,0,0,5,135Z"/><path class="o" d="M43,104H5a3,3,0,0,0-3,3v1a3,3,0,0,1,3-3H43a3,3,0,0,1,3,3v-1A3,3,0,0,0,43,104Z"/><path class="o" d="M6.15,122.5a1,1,0,0,1,.42-.41l4.25-2a1,1,0,0,1,.66-.06l3.91.92,3.93-1.86a1,1,0,0,1,1.12.18l3.75,3.54,7.88-3.72a1,1,0,0,1,.66-.06l3.81.89,3.88-2.74a1,1,0,0,1,1.4.24s0,.06,0,.09a1,1,0,0,0-1.44-1.33l-3.88,2.74L32.73,118a1,1,0,0,0-.66.06l-7.88,3.72-3.75-3.54a1,1,0,0,0-1.12-.18L15.39,120,11.48,119a1,1,0,0,0-.66.06l-4.25,2a1,1,0,0,0-.47,1.34S6.14,122.48,6.15,122.5Z"/></svg>