<svg xmlns="http://www.w3.org/2000/svg" width="48" height="240" viewBox="0 0 48 240"><defs><style>.a{fill:#42c7ff;opacity:0.2;}.b,.c,.d,.e,.f,.g,.h,.i,.j,.k{fill:none;stroke-miterlimit:10;stroke-width:2px;}.b,.c{stroke:#000;}.c,.e,.g,.i,.k{stroke-linecap:round;}.d,.e{stroke:#302b2c;}.f,.g{stroke:#c4bec1;}.h,.i{stroke:#9c979a;}.j,.k{stroke:#42c7ff;}.l{fill:#231f20;}.m{fill:#bab4b8;}.n{fill:#807b7e;}.o{fill:#29abe2;}</style></defs><title>panel-tab--filters</title><path class="a" d="M40,100H8a4,4,0,0,0-4,4v4.17A4,4,0,0,0,5.17,111L18,123.83v15.34a4,4,0,0,0,2.47,3.7,4.12,4.12,0,0,0,1.53.3A4,4,0,0,0,24.83,142l4-4A4,4,0,0,0,30,135.17V123.83l.41-.42L42.83,111A4,4,0,0,0,44,108.17V104A4,4,0,0,0,40,100Zm0,6H24a2,2,0,0,0,0,4H38.17L27.59,120.59l-.42.41-4.58,4.59a2,2,0,1,0,2.82,2.82l.59-.58v7.34l-4,4V123.83A4,4,0,0,0,20.83,121L8,108.17V104H40Z"/><path class="b" d="M40,6H8A2,2,0,0,0,6,8v4.17a2,2,0,0,0,.59,1.42L19.41,26.41A2,2,0,0,1,20,27.83V43.17a2,2,0,0,0,3.41,1.42l4-4A2,2,0,0,0,28,39.17V27.83a2,2,0,0,1,.59-1.42L41.41,13.59A2,2,0,0,0,42,12.17V8A2,2,0,0,0,40,6Z"/><line class="c" x1="29" y1="26" x2="24" y2="31"/><line class="c" x1="24" y1="12" x2="42" y2="12"/><path class="d" d="M40,54H8a2,2,0,0,0-2,2v4.17a2,2,0,0,0,.59,1.42L19.41,74.41A2,2,0,0,1,20,75.83V91.17a2,2,0,0,0,3.41,1.42l4-4A2,2,0,0,0,28,87.17V75.83a2,2,0,0,1,.59-1.42L41.41,61.59A2,2,0,0,0,42,60.17V56A2,2,0,0,0,40,54Z"/><line class="e" x1="29" y1="74" x2="24" y2="79"/><line class="e" x1="24" y1="60" x2="42" y2="60"/><path class="f" d="M40,150H8a2,2,0,0,0-2,2v4.17a2,2,0,0,0,.59,1.42l12.82,12.82a2,2,0,0,1,.59,1.42v15.34a2,2,0,0,0,3.41,1.42l4-4a2,2,0,0,0,.59-1.42V171.83a2,2,0,0,1,.59-1.42l12.82-12.82a2,2,0,0,0,.59-1.42V152A2,2,0,0,0,40,150Z"/><line class="g" x1="29" y1="170" x2="24" y2="175"/><line class="g" x1="24" y1="156" x2="42" y2="156"/><path class="h" d="M40,198H8a2,2,0,0,0-2,2v4.17a2,2,0,0,0,.59,1.42l12.82,12.82a2,2,0,0,1,.59,1.42v15.34a2,2,0,0,0,3.41,1.42l4-4a2,2,0,0,0,.59-1.42V219.83a2,2,0,0,1,.59-1.42l12.82-12.82a2,2,0,0,0,.59-1.42V200A2,2,0,0,0,40,198Z"/><line class="i" x1="29" y1="218" x2="24" y2="223"/><line class="i" x1="24" y1="204" x2="42" y2="204"/><path class="j" d="M40,102H8a2,2,0,0,0-2,2v4.17a2,2,0,0,0,.59,1.42l12.82,12.82a2,2,0,0,1,.59,1.42v15.34a2,2,0,0,0,3.41,1.42l4-4a2,2,0,0,0,.59-1.42V123.83a2,2,0,0,1,.59-1.42l12.82-12.82a2,2,0,0,0,.59-1.42V104A2,2,0,0,0,40,102Z"/><line class="k" x1="29" y1="122" x2="24" y2="127"/><line class="k" x1="24" y1="108" x2="42" y2="108"/><path class="l" d="M41,59H24a1,1,0,0,0-1,1,1,1,0,0,0,.15.5A1,1,0,0,1,24,60H41Z"/><path class="l" d="M21,92.17a1,1,0,0,0,1.71.71l4-4a1.05,1.05,0,0,0,.29-.71v-1a1.05,1.05,0,0,1-.29.71l-4,4A1,1,0,0,1,21,91.17Z"/><path class="l" d="M7.29,61.88,20.12,74.71A3,3,0,0,1,21,76.83v-1a3,3,0,0,0-.88-2.12L7.29,60.88A1.05,1.05,0,0,1,7,60.17v1A1.05,1.05,0,0,0,7.29,61.88Z"/><path class="l" d="M39.59,62,28.29,73.29l-.41.42-4.59,4.58a1,1,0,0,0-.13,1.21.92.92,0,0,1,.13-.21l4.59-4.58.41-.42L40.59,62Z"/><path class="l" d="M40,53H8a3,3,0,0,0-3,3v1a3,3,0,0,1,3-3H40a3,3,0,0,1,3,3V56A3,3,0,0,0,40,53Z"/><path class="m" d="M41,155H24a1,1,0,0,0-1,1,1,1,0,0,0,.15.5A1,1,0,0,1,24,156H41Z"/><path class="m" d="M21,188.17a1,1,0,0,0,1.71.71l4-4a1.05,1.05,0,0,0,.29-.71v-1a1.05,1.05,0,0,1-.29.71l-4,4a1,1,0,0,1-1.71-.71Z"/><path class="m" d="M7.29,157.88l12.83,12.83a3,3,0,0,1,.88,2.12v-1a3,3,0,0,0-.88-2.12L7.29,156.88a1.05,1.05,0,0,1-.29-.71v1A1.05,1.05,0,0,0,7.29,157.88Z"/><path class="m" d="M39.59,158l-11.3,11.29-.41.42-4.59,4.58a1,1,0,0,0-.13,1.21.92.92,0,0,1,.13-.21l4.59-4.58.41-.42L40.59,158Z"/><path class="m" d="M40,149H8a3,3,0,0,0-3,3v1a3,3,0,0,1,3-3H40a3,3,0,0,1,3,3v-1A3,3,0,0,0,40,149Z"/><path class="n" d="M41,203H24a1,1,0,0,0-1,1,1,1,0,0,0,.15.5A1,1,0,0,1,24,204H41Z"/><path class="n" d="M21,236.17a1,1,0,0,0,1.71.71l4-4a1.05,1.05,0,0,0,.29-.71v-1a1.05,1.05,0,0,1-.29.71l-4,4a1,1,0,0,1-1.71-.71Z"/><path class="n" d="M7.29,205.88l12.83,12.83a3,3,0,0,1,.88,2.12v-1a3,3,0,0,0-.88-2.12L7.29,204.88a1.05,1.05,0,0,1-.29-.71v1A1.05,1.05,0,0,0,7.29,205.88Z"/><path class="n" d="M39.59,206l-11.3,11.29-.41.42-4.59,4.58a1,1,0,0,0-.13,1.21.92.92,0,0,1,.13-.21l4.59-4.58.41-.42L40.59,206Z"/><path class="n" d="M40,197H8a3,3,0,0,0-3,3v1a3,3,0,0,1,3-3H40a3,3,0,0,1,3,3v-1A3,3,0,0,0,40,197Z"/><path class="o" d="M41,107H24a1,1,0,0,0-1,1,1,1,0,0,0,.15.5A1,1,0,0,1,24,108H41Z"/><path class="o" d="M21,140.17a1,1,0,0,0,1.71.71l4-4a1.05,1.05,0,0,0,.29-.71v-1a1.05,1.05,0,0,1-.29.71l-4,4a1,1,0,0,1-1.71-.71Z"/><path class="o" d="M7.29,109.88l12.83,12.83a3,3,0,0,1,.88,2.12v-1a3,3,0,0,0-.88-2.12L7.29,108.88a1.05,1.05,0,0,1-.29-.71v1A1.05,1.05,0,0,0,7.29,109.88Z"/><path class="o" d="M39.59,110l-11.3,11.29-.41.42-4.59,4.58a1,1,0,0,0-.13,1.21.92.92,0,0,1,.13-.21l4.59-4.58.41-.42L40.59,110Z"/><path class="o" d="M40,101H8a3,3,0,0,0-3,3v1a3,3,0,0,1,3-3H40a3,3,0,0,1,3,3v-1A3,3,0,0,0,40,101Z"/></svg>