<svg xmlns="http://www.w3.org/2000/svg" width="48" height="240" viewBox="0 0 48 240"><defs><style>.a{fill:#42c7ff;opacity:0.2;}.b,.c,.d,.e,.f{fill:none;stroke-linecap:round;stroke-linejoin:round;stroke-width:2px;}.b{stroke:#000;}.c{stroke:#302b2c;}.d{stroke:#c4bec1;}.e{stroke:#9c979a;}.f{stroke:#42c7ff;}.g{fill:#231f20;}.h{fill:#bab4b8;}.i{fill:#807b7e;}.j{fill:#29abe2;}</style></defs><title>panel-tab--settings</title><path class="a" d="M3,112H7.29a7,7,0,0,0,13.42,0H45a2,2,0,0,0,0-4H20.71a7,7,0,0,0-13.42,0H3a2,2,0,0,0,0,4Zm11-5a3,3,0,1,1-3,3A3,3,0,0,1,14,107Z"/><path class="a" d="M45,118H40.71a7,7,0,0,0-13.42,0H3a2,2,0,0,0,0,4H27.29a7,7,0,0,0,13.42,0H45a2,2,0,0,0,0-4Zm-11,5a3,3,0,1,1,3-3A3,3,0,0,1,34,123Z"/><path class="a" d="M45,128H27.71a7,7,0,0,0-13.42,0H3a2,2,0,0,0,0,4H14.29a7,7,0,0,0,13.42,0H45a2,2,0,0,0,0-4Zm-24,5a3,3,0,1,1,3-3A3,3,0,0,1,21,133Z"/><line class="b" x1="3" y1="24" x2="29" y2="24"/><circle class="b" cx="34" cy="24" r="5"/><line class="b" x1="3" y1="14" x2="9" y2="14"/><circle class="b" cx="14" cy="14" r="5"/><line class="b" x1="3" y1="34" x2="16" y2="34"/><circle class="b" cx="21" cy="34" r="5"/><line class="b" x1="39" y1="24" x2="45" y2="24"/><line class="b" x1="19" y1="14" x2="45" y2="14"/><line class="b" x1="26" y1="34" x2="45" y2="34"/><line class="c" x1="3" y1="72" x2="29" y2="72"/><circle class="c" cx="34" cy="72" r="5"/><line class="c" x1="3" y1="62" x2="9" y2="62"/><circle class="c" cx="14" cy="62" r="5"/><line class="c" x1="3" y1="82" x2="16" y2="82"/><circle class="c" cx="21" cy="82" r="5"/><line class="c" x1="39" y1="72" x2="45" y2="72"/><line class="c" x1="19" y1="62" x2="45" y2="62"/><line class="c" x1="26" y1="82" x2="45" y2="82"/><line class="d" x1="3" y1="168" x2="29" y2="168"/><circle class="d" cx="34" cy="168" r="5"/><line class="d" x1="3" y1="158" x2="9" y2="158"/><circle class="d" cx="14" cy="158" r="5"/><line class="d" x1="3" y1="178" x2="16" y2="178"/><circle class="d" cx="21" cy="178" r="5"/><line class="d" x1="39" y1="168" x2="45" y2="168"/><line class="d" x1="19" y1="158" x2="45" y2="158"/><line class="d" x1="26" y1="178" x2="45" y2="178"/><line class="e" x1="3" y1="216" x2="29" y2="216"/><circle class="e" cx="34" cy="216" r="5"/><line class="e" x1="3" y1="206" x2="9" y2="206"/><circle class="e" cx="14" cy="206" r="5"/><line class="e" x1="3" y1="226" x2="16" y2="226"/><circle class="e" cx="21" cy="226" r="5"/><line class="e" x1="39" y1="216" x2="45" y2="216"/><line class="e" x1="19" y1="206" x2="45" y2="206"/><line class="e" x1="26" y1="226" x2="45" y2="226"/><line class="f" x1="3" y1="120" x2="29" y2="120"/><circle class="f" cx="34" cy="120" r="5"/><line class="f" x1="3" y1="110" x2="9" y2="110"/><circle class="f" cx="14" cy="110" r="5"/><line class="f" x1="3" y1="130" x2="16" y2="130"/><circle class="f" cx="21" cy="130" r="5"/><line class="f" x1="39" y1="120" x2="45" y2="120"/><line class="f" x1="19" y1="110" x2="45" y2="110"/><line class="f" x1="26" y1="130" x2="45" y2="130"/><path class="g" d="M14,67a4,4,0,0,0,4-4,4.23,4.23,0,0,0-.05-.5,4,4,0,0,1-7.9,0A4.23,4.23,0,0,0,10,63,4,4,0,0,0,14,67Z"/><path class="g" d="M3,62H8.09a6,6,0,0,1,11.82,0H45a1,1,0,0,1,.85.5A1,1,0,0,0,46,62a1,1,0,0,0-1-1H19.91A6,6,0,0,0,8.09,61H3a1,1,0,0,0-1,1,1,1,0,0,0,.15.5A1,1,0,0,1,3,62Z"/><path class="g" d="M3,72H28.09a6,6,0,0,1,11.82,0H45a1,1,0,0,1,.85.5A1,1,0,0,0,46,72a1,1,0,0,0-1-1H39.91a6,6,0,0,0-11.82,0H3a1,1,0,0,0-1,1,1,1,0,0,0,.15.5A1,1,0,0,1,3,72Z"/><path class="g" d="M34,77a4,4,0,0,0,4-4,4.23,4.23,0,0,0,0-.5,4,4,0,0,1-7.9,0A4.23,4.23,0,0,0,30,73,4,4,0,0,0,34,77Z"/><path class="g" d="M3,82H15.09a6,6,0,0,1,11.82,0H45a1,1,0,0,1,.85.5A1,1,0,0,0,46,82a1,1,0,0,0-1-1H26.91a6,6,0,0,0-11.82,0H3a1,1,0,0,0-1,1,1,1,0,0,0,.15.5A1,1,0,0,1,3,82Z"/><path class="g" d="M21,87a4,4,0,0,0,4-4,4.23,4.23,0,0,0-.05-.5,4,4,0,0,1-7.9,0A4.23,4.23,0,0,0,17,83,4,4,0,0,0,21,87Z"/><path class="h" d="M14,163a4,4,0,0,0,4-4,4.23,4.23,0,0,0-.05-.5,4,4,0,0,1-7.9,0,4.23,4.23,0,0,0-.05.5A4,4,0,0,0,14,163Z"/><path class="h" d="M3,158H8.09a6,6,0,0,1,11.82,0H45a1,1,0,0,1,.85.5A1,1,0,0,0,46,158a1,1,0,0,0-1-1H19.91a6,6,0,0,0-11.82,0H3a1,1,0,0,0-1,1,1,1,0,0,0,.15.5A1,1,0,0,1,3,158Z"/><path class="h" d="M3,168H28.09a6,6,0,0,1,11.82,0H45a1,1,0,0,1,.85.5A1,1,0,0,0,46,168a1,1,0,0,0-1-1H39.91a6,6,0,0,0-11.82,0H3a1,1,0,0,0-1,1,1,1,0,0,0,.15.5A1,1,0,0,1,3,168Z"/><path class="h" d="M34,173a4,4,0,0,0,4-4,4.23,4.23,0,0,0,0-.5,4,4,0,0,1-7.9,0,4.23,4.23,0,0,0-.05.5A4,4,0,0,0,34,173Z"/><path class="h" d="M3,178H15.09a6,6,0,0,1,11.82,0H45a1,1,0,0,1,.85.5A1,1,0,0,0,46,178a1,1,0,0,0-1-1H26.91a6,6,0,0,0-11.82,0H3a1,1,0,0,0-1,1,1,1,0,0,0,.15.5A1,1,0,0,1,3,178Z"/><path class="h" d="M21,183a4,4,0,0,0,4-4,4.23,4.23,0,0,0-.05-.5,4,4,0,0,1-7.9,0,4.23,4.23,0,0,0-.05.5A4,4,0,0,0,21,183Z"/><path class="i" d="M14,211a4,4,0,0,0,4-4,4.23,4.23,0,0,0-.05-.5,4,4,0,0,1-7.9,0,4.23,4.23,0,0,0-.05.5A4,4,0,0,0,14,211Z"/><path class="i" d="M3,206H8.09a6,6,0,0,1,11.82,0H45a1,1,0,0,1,.85.5A1,1,0,0,0,46,206a1,1,0,0,0-1-1H19.91a6,6,0,0,0-11.82,0H3a1,1,0,0,0-1,1,1,1,0,0,0,.15.5A1,1,0,0,1,3,206Z"/><path class="i" d="M3,216H28.09a6,6,0,0,1,11.82,0H45a1,1,0,0,1,.85.5A1,1,0,0,0,46,216a1,1,0,0,0-1-1H39.91a6,6,0,0,0-11.82,0H3a1,1,0,0,0-1,1,1,1,0,0,0,.15.5A1,1,0,0,1,3,216Z"/><path class="i" d="M34,221a4,4,0,0,0,4-4,4.23,4.23,0,0,0,0-.5,4,4,0,0,1-7.9,0,4.23,4.23,0,0,0-.05.5A4,4,0,0,0,34,221Z"/><path class="i" d="M3,226H15.09a6,6,0,0,1,11.82,0H45a1,1,0,0,1,.85.5A1,1,0,0,0,46,226a1,1,0,0,0-1-1H26.91a6,6,0,0,0-11.82,0H3a1,1,0,0,0-1,1,1,1,0,0,0,.15.5A1,1,0,0,1,3,226Z"/><path class="i" d="M21,231a4,4,0,0,0,4-4,4.23,4.23,0,0,0-.05-.5,4,4,0,0,1-7.9,0,4.23,4.23,0,0,0-.05.5A4,4,0,0,0,21,231Z"/><path class="j" d="M14,115a4,4,0,0,0,4-4,4.23,4.23,0,0,0-.05-.5,4,4,0,0,1-7.9,0,4.23,4.23,0,0,0-.05.5A4,4,0,0,0,14,115Z"/><path class="j" d="M3,110H8.09a6,6,0,0,1,11.82,0H45a1,1,0,0,1,.85.5A1,1,0,0,0,46,110a1,1,0,0,0-1-1H19.91a6,6,0,0,0-11.82,0H3a1,1,0,0,0-1,1,1,1,0,0,0,.15.5A1,1,0,0,1,3,110Z"/><path class="j" d="M3,120H28.09a6,6,0,0,1,11.82,0H45a1,1,0,0,1,.85.5A1,1,0,0,0,46,120a1,1,0,0,0-1-1H39.91a6,6,0,0,0-11.82,0H3a1,1,0,0,0-1,1,1,1,0,0,0,.15.5A1,1,0,0,1,3,120Z"/><path class="j" d="M34,125a4,4,0,0,0,4-4,4.23,4.23,0,0,0,0-.5,4,4,0,0,1-7.9,0,4.23,4.23,0,0,0-.05.5A4,4,0,0,0,34,125Z"/><path class="j" d="M3,130H15.09a6,6,0,0,1,11.82,0H45a1,1,0,0,1,.85.5A1,1,0,0,0,46,130a1,1,0,0,0-1-1H26.91a6,6,0,0,0-11.82,0H3a1,1,0,0,0-1,1,1,1,0,0,0,.15.5A1,1,0,0,1,3,130Z"/><path class="j" d="M21,135a4,4,0,0,0,4-4,4.23,4.23,0,0,0-.05-.5,4,4,0,0,1-7.9,0,4.23,4.23,0,0,0-.05.5A4,4,0,0,0,21,135Z"/></svg>