<svg xmlns="http://www.w3.org/2000/svg" width="72" height="72" viewBox="0 0 72 72"><defs><style>.a{fill:#29abe2;}.b{fill:#fff;}.c{fill:#9c979a;}.d{fill:#1f85af;}</style></defs><title>sprites</title>
    <circle class="a" cx="59.91" cy="12.19" r="8"/>
    <polygon class="b" points="63.41 14.69 59.91 11.19 56.41 14.69 54.91 13.19 59.91 8.19 64.91 13.19 63.41 14.69"/>
    <polygon class="c" points="15.92 14.01 12.42 10.51 8.92 14.01 7.42 12.51 12.42 7.51 17.42 12.51 15.92 14.01"/>
    <circle class="d" cx="36.28" cy="11.58" r="8"/>
    <polygon class="b" points="39.78 14.07 36.28 10.57 32.78 14.07 31.28 12.57 36.28 7.58 41.28 12.57 39.78 14.07"/>
    <circle class="a" cx="60.46" cy="36.13" r="8"/>
    <polygon class="b" points="56.96 33.63 60.46 37.13 63.96 33.63 65.46 35.13 60.46 40.13 55.46 35.13 56.96 33.63"/>
    <polygon class="c" points="8.29 33.28 11.79 36.78 15.29 33.28 16.79 34.78 11.79 39.78 6.79 34.78 8.29 33.28"/>
    <circle class="d" cx="36.28" cy="35.68" r="8"/>
    <polygon class="b" points="32.78 33.18 36.28 36.68 39.78 33.18 41.28 34.68 36.28 39.68 31.28 34.68 32.78 33.18"/>
</svg>